<svg width="188" height="218" viewBox="0 0 188 218" fill="none" xmlns="http://www.w3.org/2000/svg">
<path d="M50.5482 44.0058C50.4509 30.9203 56.1089 19.1666 65.1269 11.1054C65.6572 10.6314 66.1989 10.1702 66.7519 9.72221C74.2204 3.67195 83.7189 0.0370842 94.0482 0.000274193C94.4308 -0.00109581 94.8148 0.00268408 95.1996 0.0112541C95.5843 0.0198141 95.9675 0.0331241 96.3494 0.0515041C115.458 0.970884 131.171 14.0916 136.21 31.5735C136.411 32.2724 136.596 32.9784 136.763 33.6908C137.681 37.6109 138.069 41.7268 137.848 45.9553L135.712 86.9267C129.923 69.3202 113.542 56.4335 93.9562 55.9974C74.3587 55.5611 57.4124 67.7219 50.854 85.0706L50.5482 44.0058ZM89.5596 201.921C74.2722 201.185 61.1576 192.642 53.9421 180.302C53.7618 179.994 53.5857 179.683 53.4129 179.37C52.2021 177.178 51.1745 174.873 50.3507 172.476C50.1153 171.791 49.8963 171.099 49.6946 170.4C48.3838 165.855 47.7945 161.014 48.0544 156.017L50.1873 115.013C55.9675 132.636 72.3557 145.539 91.9528 145.975C111.563 146.412 128.519 134.236 135.069 116.87L135.368 157.968C135.424 165.665 133.489 172.901 130.05 179.196C129.878 179.511 129.702 179.824 129.523 180.134C124.32 189.123 116.007 196.083 106.07 199.549C105.385 199.787 104.692 200.01 103.992 200.215C100.14 201.345 96.0693 201.957 91.8607 201.972C91.4782 201.973 91.0941 201.97 90.7093 201.961L89.5596 201.921Z" fill="url(#paint0_linear_9_4)" fill-opacity="0.5"/>
<path d="M23.4012 109.248C1.97954 97.0875 -5.15749 69.6308 7.63061 48.5776C15.8239 35.0889 30.1198 27.6465 44.7706 27.565C45.4853 27.5611 46.2009 27.5748 46.9167 27.606C54.4314 27.9337 61.9655 30.2094 68.7467 34.6092L103.685 57.2782C100.56 56.5143 97.3054 56.0725 93.9565 55.9979C69.1099 55.4447 48.5192 75.1385 47.9661 99.9852C47.7271 110.721 51.2705 120.66 57.374 128.533L23.4012 109.248ZM140.995 174.408C133.481 174.08 125.947 171.803 119.167 167.403L85.1218 145.307C87.3453 145.697 89.627 145.924 91.9533 145.975C116.8 146.528 137.391 126.835 137.944 101.988C138.204 90.3161 133.995 79.5827 126.884 71.4251L164.506 92.7746C185.928 104.931 193.068 132.388 180.28 153.44C176.683 159.362 171.91 164.118 166.447 167.597C165.84 167.984 165.224 168.354 164.601 168.709C160.549 171.016 156.165 172.651 151.634 173.571C150.936 173.713 150.236 173.838 149.532 173.946C147.421 174.268 145.285 174.437 143.141 174.449C142.427 174.453 141.711 174.439 140.995 174.408Z" fill="url(#paint1_linear_9_4)" fill-opacity="0.5"/>
<path d="M125.561 132.001C133.014 124.171 137.684 113.646 137.943 101.988C138.497 77.1416 118.803 56.551 93.9558 55.9978C91.6177 55.9457 89.3175 56.074 87.0679 56.368L122.099 35.793C143.339 23.3192 170.687 30.8648 182.525 52.4653C193.069 71.7055 187.593 95.3172 170.765 108.157C170.174 108.607 169.57 109.045 168.952 109.468C167.406 110.526 165.774 111.498 164.06 112.372L125.561 132.001ZM41.5498 172.196C26.9186 171.461 12.9698 163.391 5.38566 149.552C-6.45416 127.948 1.90097 100.833 23.8468 89.6399L58.6153 71.9075C52.1795 79.4983 48.2041 89.2604 47.9653 99.9852C47.4123 124.831 67.1061 145.422 91.9525 145.975C95.315 146.05 98.5995 145.752 101.767 145.122L65.8136 166.23C58.8433 170.322 51.2159 172.259 43.6946 172.251C42.9785 172.251 42.2633 172.232 41.5498 172.196Z" fill="url(#paint2_linear_9_4)" fill-opacity="0.5"/>
<path d="M50.5482 44.0058C50.4509 30.9203 56.1089 19.1666 65.1269 11.1054C65.6572 10.6314 66.1989 10.1702 66.7519 9.72221C74.2204 3.67195 83.7189 0.0370842 94.0482 0.000274193C94.4308 -0.00109581 94.8148 0.00268408 95.1996 0.0112541C95.5843 0.0198141 95.9675 0.0331241 96.3494 0.0515041C115.458 0.970884 131.171 14.0916 136.21 31.5735C136.411 32.2724 136.596 32.9784 136.763 33.6908C137.681 37.6109 138.069 41.7268 137.848 45.9553L135.712 86.9267C129.923 69.3202 113.542 56.4335 93.9562 55.9974C74.3587 55.5611 57.4124 67.7219 50.854 85.0706L50.5482 44.0058ZM89.5596 201.921C74.2722 201.185 61.1576 192.642 53.9421 180.302C53.7618 179.994 53.5857 179.683 53.4129 179.37C52.2021 177.178 51.1745 174.873 50.3507 172.476C50.1153 171.791 49.8963 171.099 49.6946 170.4C48.3838 165.855 47.7945 161.014 48.0544 156.017L50.1873 115.013C55.9675 132.636 72.3557 145.539 91.9528 145.975C111.563 146.412 128.519 134.236 135.069 116.87L135.368 157.968C135.424 165.665 133.489 172.901 130.05 179.196C129.878 179.511 129.702 179.824 129.523 180.134C124.32 189.123 116.007 196.083 106.07 199.549C105.385 199.787 104.692 200.01 103.992 200.215C100.14 201.345 96.0693 201.957 91.8607 201.972C91.4782 201.973 91.0941 201.97 90.7093 201.961L89.5596 201.921Z" fill="url(#paint3_linear_9_4)" fill-opacity="0.5"/>
<path d="M23.4012 109.248C1.97954 97.0875 -5.15749 69.6308 7.63061 48.5776C15.8239 35.0889 30.1198 27.6465 44.7706 27.565C45.4853 27.5611 46.2009 27.5748 46.9167 27.606C54.4314 27.9337 61.9655 30.2094 68.7467 34.6092L103.685 57.2782C100.56 56.5143 97.3054 56.0725 93.9565 55.9979C69.1099 55.4447 48.5192 75.1385 47.9661 99.9852C47.7271 110.721 51.2705 120.66 57.374 128.533L23.4012 109.248ZM140.995 174.408C133.481 174.08 125.947 171.803 119.167 167.403L85.1218 145.307C87.3453 145.697 89.627 145.924 91.9533 145.975C116.8 146.528 137.391 126.835 137.944 101.988C138.204 90.3161 133.995 79.5827 126.884 71.4251L164.506 92.7746C185.928 104.931 193.068 132.388 180.28 153.44C176.683 159.362 171.91 164.118 166.447 167.597C165.84 167.984 165.224 168.354 164.601 168.709C160.549 171.016 156.165 172.651 151.634 173.571C150.936 173.713 150.236 173.838 149.532 173.946C147.421 174.268 145.285 174.437 143.141 174.449C142.427 174.453 141.711 174.439 140.995 174.408Z" fill="url(#paint4_linear_9_4)" fill-opacity="0.5"/>
<path d="M125.561 132.001C133.014 124.171 137.684 113.646 137.943 101.988C138.497 77.1416 118.803 56.551 93.9558 55.9978C91.6177 55.9457 89.3175 56.074 87.0679 56.368L122.099 35.793C143.339 23.3192 170.687 30.8648 182.525 52.4653C193.069 71.7055 187.593 95.3172 170.765 108.157C170.174 108.607 169.57 109.045 168.952 109.468C167.406 110.526 165.774 111.498 164.06 112.372L125.561 132.001ZM41.5498 172.196C26.9186 171.461 12.9698 163.391 5.38566 149.552C-6.45416 127.948 1.90097 100.833 23.8468 89.6399L58.6153 71.9075C52.1795 79.4983 48.2041 89.2604 47.9653 99.9852C47.4123 124.831 67.1061 145.422 91.9525 145.975C95.315 146.05 98.5995 145.752 101.767 145.122L65.8136 166.23C58.8433 170.322 51.2159 172.259 43.6946 172.251C42.9785 172.251 42.2633 172.232 41.5498 172.196Z" fill="url(#paint5_linear_9_4)" fill-opacity="0.5"/>
<path d="M50.5482 44.0058C50.4509 30.9203 56.1089 19.1666 65.1269 11.1054C65.6572 10.6314 66.1989 10.1702 66.7519 9.72221C74.2204 3.67195 83.7189 0.0370842 94.0482 0.000274193C94.4308 -0.00109581 94.8148 0.00268408 95.1996 0.0112541C95.5843 0.0198141 95.9675 0.0331241 96.3494 0.0515041C115.458 0.970884 131.171 14.0916 136.21 31.5735C136.411 32.2724 136.596 32.9784 136.763 33.6908C137.681 37.6109 138.069 41.7268 137.848 45.9553L135.712 86.9267C129.923 69.3202 113.542 56.4335 93.9562 55.9974C74.3587 55.5611 57.4124 67.7219 50.854 85.0706L50.5482 44.0058ZM89.5596 201.921C74.2722 201.185 61.1576 192.642 53.9421 180.302C53.7618 179.994 53.5857 179.683 53.4129 179.37C52.2021 177.178 51.1745 174.873 50.3507 172.476C50.1153 171.791 49.8963 171.099 49.6946 170.4C48.3838 165.855 47.7945 161.014 48.0544 156.017L50.1873 115.013C55.9675 132.636 72.3557 145.539 91.9528 145.975C111.563 146.412 128.519 134.236 135.069 116.87L135.368 157.968C135.424 165.665 133.489 172.901 130.05 179.196C129.878 179.511 129.702 179.824 129.523 180.134C124.32 189.123 116.007 196.083 106.07 199.549C105.385 199.787 104.692 200.01 103.992 200.215C100.14 201.345 96.0693 201.957 91.8607 201.972C91.4782 201.973 91.0941 201.97 90.7093 201.961L89.5596 201.921Z" fill="url(#paint6_linear_9_4)" fill-opacity="0.5"/>
<path d="M23.4012 109.248C1.97954 97.0875 -5.15749 69.6308 7.63061 48.5776C15.8239 35.0889 30.1198 27.6465 44.7706 27.565C45.4853 27.5611 46.2009 27.5748 46.9167 27.606C54.4314 27.9337 61.9655 30.2094 68.7467 34.6092L103.685 57.2782C100.56 56.5143 97.3054 56.0725 93.9565 55.9979C69.1099 55.4447 48.5192 75.1385 47.9661 99.9852C47.7271 110.721 51.2705 120.66 57.374 128.533L23.4012 109.248ZM140.995 174.408C133.481 174.08 125.947 171.803 119.167 167.403L85.1218 145.307C87.3453 145.697 89.627 145.924 91.9533 145.975C116.8 146.528 137.391 126.835 137.944 101.988C138.204 90.3161 133.995 79.5827 126.884 71.4251L164.506 92.7746C185.928 104.931 193.068 132.388 180.28 153.44C176.683 159.362 171.91 164.118 166.447 167.597C165.84 167.984 165.224 168.354 164.601 168.709C160.549 171.016 156.165 172.651 151.634 173.571C150.936 173.713 150.236 173.838 149.532 173.946C147.421 174.268 145.285 174.437 143.141 174.449C142.427 174.453 141.711 174.439 140.995 174.408Z" fill="url(#paint7_linear_9_4)" fill-opacity="0.5"/>
<path d="M125.561 132.001C133.014 124.171 137.684 113.646 137.943 101.988C138.497 77.1416 118.803 56.551 93.9558 55.9978C91.6177 55.9457 89.3175 56.074 87.0679 56.368L122.099 35.793C143.339 23.3192 170.687 30.8648 182.525 52.4653C193.069 71.7055 187.593 95.3172 170.765 108.157C170.174 108.607 169.57 109.045 168.952 109.468C167.406 110.526 165.774 111.498 164.06 112.372L125.561 132.001ZM41.5498 172.196C26.9186 171.461 12.9698 163.391 5.38566 149.552C-6.45416 127.948 1.90097 100.833 23.8468 89.6399L58.6153 71.9075C52.1795 79.4983 48.2041 89.2604 47.9653 99.9852C47.4123 124.831 67.1061 145.422 91.9525 145.975C95.315 146.05 98.5995 145.752 101.767 145.122L65.8136 166.23C58.8433 170.322 51.2159 172.259 43.6946 172.251C42.9785 172.251 42.2633 172.232 41.5498 172.196Z" fill="url(#paint8_linear_9_4)" fill-opacity="0.5"/>
<path d="M27.5 208C33.299 208 38 203.299 38 197.5C38 191.701 33.299 187 27.5 187C21.701 187 17 191.701 17 197.5C17 203.299 21.701 208 27.5 208Z" fill="#00A3F4"/>
<path d="M7 218C10.3137 218 13 215.314 13 212C13 208.686 10.3137 206 7 206C3.68629 206 1 208.686 1 212C1 215.314 3.68629 218 7 218Z" fill="#00A3F4"/>
<path d="M93 146C117.853 146 138 125.853 138 101C138 76.1472 117.853 56 93 56C68.1472 56 48 76.1472 48 101C48 125.853 68.1472 146 93 146Z" fill="#003776"/>
<path d="M93 56C117.853 56 138 76.1472 138 101C138 125.853 117.853 146 93 146C68.1472 146 48 125.853 48 101C48 76.1472 68.1472 56 93 56ZM74.9961 109.567C74.5932 109.52 74.1845 109.552 73.794 109.66C73.4036 109.769 73.0383 109.954 72.7196 110.203C72.4009 110.451 72.1343 110.759 71.9359 111.11C71.7377 111.46 71.6114 111.846 71.5634 112.245C71.5154 112.644 71.5465 113.049 71.6562 113.436C71.766 113.823 71.9524 114.186 72.2034 114.502C74.5137 117.417 77.4631 119.773 80.8278 121.392C84.1927 123.011 87.8855 123.85 91.6259 123.847C95.3607 123.85 99.0472 123.012 102.408 121.398C105.769 119.784 108.717 117.433 111.028 114.525C111.279 114.21 111.465 113.848 111.576 113.462C111.686 113.075 111.718 112.671 111.671 112.272C111.624 111.873 111.498 111.487 111.3 111.136C111.102 110.785 110.837 110.475 110.519 110.226C110.201 109.977 109.836 109.793 109.445 109.684C109.055 109.574 108.647 109.542 108.245 109.589C107.842 109.635 107.452 109.76 107.098 109.956C106.744 110.152 106.433 110.416 106.181 110.731C104.449 112.914 102.237 114.678 99.7156 115.889C97.1943 117.101 94.428 117.729 91.6259 117.725C88.8211 117.726 86.0523 117.096 83.5288 115.882C81.0054 114.668 78.7918 112.903 77.0572 110.719C76.8062 110.403 76.4949 110.134 76.1411 109.938C75.7876 109.741 75.3985 109.615 74.9961 109.567ZM75.1558 85.0794C73.8166 85.117 72.5443 85.67 71.6104 86.6218C70.6765 87.574 70.1534 89.8704 70.1534 91.1984C70.1534 92.5262 70.6767 94.8251 71.6104 95.7773C72.5443 96.7294 73.8164 97.2834 75.1558 97.321C75.8432 97.3402 76.5277 97.2229 77.1685 96.9756C77.8096 96.728 78.3946 96.3554 78.888 95.88C79.3814 95.4047 79.7739 94.8359 80.0416 94.2077C80.3095 93.5796 80.4477 91.8806 80.4478 91.1984C80.4478 90.5164 80.3095 88.8211 80.0416 88.1927C79.7739 87.5645 79.3815 86.9957 78.888 86.5203C78.3946 86.045 77.8096 85.6724 77.1685 85.4248C76.5276 85.1774 75.8432 85.0602 75.1558 85.0794ZM107.535 86.4621C105.99 86.4599 104.464 86.9453 103.073 87.8832C101.682 88.8212 100.463 90.1872 99.5064 91.8767C99.4023 92.06 99.3243 92.2697 99.2786 92.4944C99.2329 92.719 99.2195 92.9545 99.239 93.1864C99.2586 93.4182 99.3108 93.6424 99.3925 93.8461C99.4743 94.05 99.5852 94.2288 99.7168 94.3736C99.8484 94.5181 99.9987 94.6256 100.16 94.6892C100.321 94.7529 100.491 94.7721 100.658 94.7449C100.824 94.7177 100.985 94.6446 101.132 94.5308C101.278 94.4169 101.408 94.2646 101.512 94.0814C102.229 92.8132 103.143 91.7884 104.187 91.0844C105.23 90.3805 106.376 90.0152 107.535 90.0173C108.696 90.0168 109.841 90.3833 110.885 91.0882C111.929 91.7933 112.846 92.8196 113.564 94.0889C113.668 94.2721 113.796 94.4277 113.943 94.5419C114.089 94.656 114.25 94.7297 114.417 94.7573C114.583 94.7848 114.753 94.766 114.914 94.7028C115.076 94.6395 115.227 94.5327 115.359 94.3884C115.491 94.2439 115.601 94.0647 115.683 93.8611C115.765 93.6574 115.817 93.433 115.837 93.2013C115.857 92.9693 115.844 92.7341 115.798 92.5093C115.753 92.2845 115.676 92.0739 115.572 91.8904C114.616 90.1968 113.395 88.8274 112.003 87.887C110.611 86.9467 109.083 86.4599 107.535 86.4621Z" fill="white"/>
<defs>
<linearGradient id="paint0_linear_9_4" x1="90.7097" y1="201.961" x2="95.2058" y2="0.0113973" gradientUnits="userSpaceOnUse">
<stop stop-color="#9ECF67"/>
<stop offset="1" stop-color="#86A1EF"/>
</linearGradient>
<linearGradient id="paint1_linear_9_4" x1="1.85506" y1="44.643" x2="186.055" y2="157.371" gradientUnits="userSpaceOnUse">
<stop stop-color="#AEA1F4"/>
<stop offset="1" stop-color="#48C3DC"/>
</linearGradient>
<linearGradient id="paint2_linear_9_4" x1="-0.529034" y1="151.867" x2="188.439" y2="50.1555" gradientUnits="userSpaceOnUse">
<stop stop-color="#B3D34A"/>
<stop offset="1" stop-color="#3FB5F4"/>
</linearGradient>
<linearGradient id="paint3_linear_9_4" x1="90.7097" y1="201.961" x2="95.2058" y2="0.0113973" gradientUnits="userSpaceOnUse">
<stop stop-color="#9ECF67"/>
<stop offset="1" stop-color="#86A1EF"/>
</linearGradient>
<linearGradient id="paint4_linear_9_4" x1="1.85506" y1="44.643" x2="186.055" y2="157.371" gradientUnits="userSpaceOnUse">
<stop stop-color="#AEA1F4"/>
<stop offset="1" stop-color="#48C3DC"/>
</linearGradient>
<linearGradient id="paint5_linear_9_4" x1="-0.528958" y1="151.867" x2="188.439" y2="50.1555" gradientUnits="userSpaceOnUse">
<stop stop-color="#B3D34A"/>
<stop offset="1" stop-color="#3FB5F4"/>
</linearGradient>
<linearGradient id="paint6_linear_9_4" x1="90.7097" y1="201.961" x2="95.2058" y2="0.0113973" gradientUnits="userSpaceOnUse">
<stop stop-color="#9ECF67"/>
<stop offset="1" stop-color="#86A1EF"/>
</linearGradient>
<linearGradient id="paint7_linear_9_4" x1="1.85506" y1="44.643" x2="186.055" y2="157.371" gradientUnits="userSpaceOnUse">
<stop stop-color="#AEA1F4"/>
<stop offset="1" stop-color="#48C3DC"/>
</linearGradient>
<linearGradient id="paint8_linear_9_4" x1="-0.528958" y1="151.867" x2="188.439" y2="50.1555" gradientUnits="userSpaceOnUse">
<stop stop-color="#B3D34A"/>
<stop offset="1" stop-color="#3FB5F4"/>
</linearGradient>
</defs>
</svg>
