<svg width="192" height="207" viewBox="0 0 192 207" fill="none" xmlns="http://www.w3.org/2000/svg">
<path d="M52.1497 46.0496C52.0524 32.9641 57.7104 21.2104 66.7284 13.1492C67.2586 12.6752 67.8004 12.214 68.3533 11.766C75.8218 5.71574 85.3204 2.08087 95.6497 2.04406C96.0323 2.04269 96.4163 2.04647 96.8011 2.05504C97.1857 2.0636 97.569 2.07691 97.9509 2.09529C117.059 3.01467 132.772 16.1354 137.811 33.6173C138.012 34.3162 138.197 35.0222 138.364 35.7346C139.282 39.6547 139.67 43.7706 139.449 47.9991L137.313 88.9705C131.524 71.364 115.143 58.4773 95.5576 58.0412C75.9602 57.6049 59.0139 69.7657 52.4555 87.1144L52.1497 46.0496ZM91.161 203.965C75.8736 203.229 62.7591 194.686 55.5436 182.346C55.3633 182.038 55.1872 181.727 55.0144 181.414C53.8036 179.222 52.776 176.917 51.9522 174.52C51.7168 173.835 51.4978 173.143 51.2961 172.444C49.9853 167.899 49.396 163.058 49.6559 158.061L51.7888 117.057C57.569 134.68 73.9572 147.583 93.5543 148.019C113.164 148.456 130.12 136.28 136.67 118.914L136.969 160.012C137.025 167.709 135.09 174.945 131.651 181.24C131.479 181.555 131.303 181.868 131.124 182.178C125.921 191.167 117.608 198.127 107.671 201.593C106.986 201.831 106.293 202.054 105.593 202.259C101.741 203.389 97.6708 204.001 93.4622 204.016C93.0797 204.017 92.6956 204.014 92.3108 204.005L91.161 203.965Z" fill="url(#paint0_linear_14_255)" fill-opacity="0.5"/>
<path d="M25.0027 111.292C3.58101 99.1313 -3.55602 71.6746 9.23208 50.6214C17.4254 37.1327 31.7213 29.6903 46.3721 29.6088C47.0868 29.6049 47.8024 29.6186 48.5182 29.6498C56.0329 29.9775 63.567 32.2532 70.3482 36.653L105.286 59.322C102.161 58.5581 98.9069 58.1163 95.558 58.0417C70.7114 57.4885 50.1207 77.1823 49.5676 102.029C49.3286 112.765 52.872 122.704 58.9755 130.577L25.0027 111.292ZM142.596 176.452C135.082 176.124 127.548 173.847 120.768 169.447L86.7233 147.351C88.9468 147.741 91.2285 147.968 93.5548 148.019C118.401 148.572 138.992 128.879 139.545 104.032C139.805 92.3599 135.596 81.6265 128.485 73.4689L166.107 94.8184C187.529 106.975 194.669 134.432 181.881 155.484C178.284 161.406 173.511 166.162 168.048 169.641C167.441 170.028 166.825 170.398 166.202 170.753C162.15 173.06 157.766 174.695 153.235 175.615C152.537 175.757 151.837 175.882 151.133 175.99C149.022 176.312 146.886 176.481 144.742 176.493C144.028 176.497 143.312 176.483 142.596 176.452Z" fill="url(#paint1_linear_14_255)" fill-opacity="0.5"/>
<path d="M127.162 134.045C134.615 126.215 139.285 115.69 139.544 104.032C140.098 79.1854 120.404 58.5948 95.5573 58.0416C93.2192 57.9895 90.919 58.1178 88.6694 58.4118L123.7 37.8368C144.94 25.363 172.288 32.9086 184.126 54.5091C194.67 73.7493 189.194 97.361 172.366 110.201C171.775 110.651 171.171 111.089 170.553 111.512C169.007 112.57 167.375 113.542 165.661 114.416L127.162 134.045ZM43.1513 174.24C28.5201 173.505 14.5713 165.435 6.98714 151.596C-4.85268 129.992 3.50245 102.877 25.4483 91.6837L60.2168 73.9513C53.781 81.5421 49.8056 91.3042 49.5668 102.029C49.0138 126.875 68.7076 147.466 93.554 148.019C96.9165 148.094 100.201 147.796 103.368 147.166L67.4151 168.274C60.4448 172.366 52.8174 174.303 45.2961 174.295C44.58 174.295 43.8648 174.276 43.1513 174.24Z" fill="url(#paint2_linear_14_255)" fill-opacity="0.5"/>
<path d="M52.1497 46.0496C52.0524 32.9641 57.7104 21.2104 66.7284 13.1492C67.2586 12.6752 67.8004 12.214 68.3533 11.766C75.8218 5.71574 85.3204 2.08087 95.6497 2.04406C96.0323 2.04269 96.4163 2.04647 96.8011 2.05504C97.1857 2.0636 97.569 2.07691 97.9509 2.09529C117.059 3.01467 132.772 16.1354 137.811 33.6173C138.012 34.3162 138.197 35.0222 138.364 35.7346C139.282 39.6547 139.67 43.7706 139.449 47.9991L137.313 88.9705C131.524 71.364 115.143 58.4773 95.5576 58.0412C75.9602 57.6049 59.0139 69.7657 52.4555 87.1144L52.1497 46.0496ZM91.161 203.965C75.8736 203.229 62.7591 194.686 55.5436 182.346C55.3633 182.038 55.1872 181.727 55.0144 181.414C53.8036 179.222 52.776 176.917 51.9522 174.52C51.7168 173.835 51.4978 173.143 51.2961 172.444C49.9853 167.899 49.396 163.058 49.6559 158.061L51.7888 117.057C57.569 134.68 73.9572 147.583 93.5543 148.019C113.164 148.456 130.12 136.28 136.67 118.914L136.969 160.012C137.025 167.709 135.09 174.945 131.651 181.24C131.479 181.555 131.303 181.868 131.124 182.178C125.921 191.167 117.608 198.127 107.671 201.593C106.986 201.831 106.293 202.054 105.593 202.259C101.741 203.389 97.6708 204.001 93.4622 204.016C93.0797 204.017 92.6956 204.014 92.3108 204.005L91.161 203.965Z" fill="url(#paint3_linear_14_255)" fill-opacity="0.5"/>
<path d="M25.0027 111.292C3.58101 99.1313 -3.55602 71.6746 9.23208 50.6214C17.4254 37.1327 31.7213 29.6903 46.3721 29.6088C47.0868 29.6049 47.8024 29.6186 48.5182 29.6498C56.0329 29.9775 63.567 32.2532 70.3482 36.653L105.286 59.322C102.161 58.5581 98.9069 58.1163 95.558 58.0417C70.7114 57.4885 50.1207 77.1823 49.5676 102.029C49.3286 112.765 52.872 122.704 58.9755 130.577L25.0027 111.292ZM142.596 176.452C135.082 176.124 127.548 173.847 120.768 169.447L86.7233 147.351C88.9468 147.741 91.2285 147.968 93.5548 148.019C118.401 148.572 138.992 128.879 139.545 104.032C139.805 92.3599 135.596 81.6265 128.485 73.4689L166.107 94.8184C187.529 106.975 194.669 134.432 181.881 155.484C178.284 161.406 173.511 166.162 168.048 169.641C167.441 170.028 166.825 170.398 166.202 170.753C162.15 173.06 157.766 174.695 153.235 175.615C152.537 175.757 151.837 175.882 151.133 175.99C149.022 176.312 146.886 176.481 144.742 176.493C144.028 176.497 143.312 176.483 142.596 176.452Z" fill="url(#paint4_linear_14_255)" fill-opacity="0.5"/>
<path d="M127.162 134.045C134.615 126.215 139.285 115.69 139.544 104.032C140.098 79.1854 120.404 58.5948 95.5573 58.0416C93.2192 57.9895 90.919 58.1178 88.6694 58.4118L123.7 37.8368C144.94 25.363 172.288 32.9086 184.126 54.5091C194.67 73.7493 189.194 97.361 172.366 110.201C171.775 110.651 171.171 111.089 170.553 111.512C169.007 112.57 167.375 113.542 165.661 114.416L127.162 134.045ZM43.1513 174.24C28.5201 173.505 14.5713 165.435 6.98714 151.596C-4.85268 129.992 3.50245 102.877 25.4483 91.6837L60.2168 73.9513C53.781 81.5421 49.8056 91.3042 49.5668 102.029C49.0138 126.875 68.7076 147.466 93.554 148.019C96.9165 148.094 100.201 147.796 103.368 147.166L67.4151 168.274C60.4448 172.366 52.8174 174.303 45.2961 174.295C44.58 174.295 43.8648 174.276 43.1513 174.24Z" fill="url(#paint5_linear_14_255)" fill-opacity="0.5"/>
<path d="M52.1497 46.0496C52.0524 32.9641 57.7104 21.2104 66.7284 13.1492C67.2586 12.6752 67.8004 12.214 68.3533 11.766C75.8218 5.71574 85.3204 2.08087 95.6497 2.04406C96.0323 2.04269 96.4163 2.04647 96.8011 2.05504C97.1857 2.0636 97.569 2.07691 97.9509 2.09529C117.059 3.01467 132.772 16.1354 137.811 33.6173C138.012 34.3162 138.197 35.0222 138.364 35.7346C139.282 39.6547 139.67 43.7706 139.449 47.9991L137.313 88.9705C131.524 71.364 115.143 58.4773 95.5576 58.0412C75.9602 57.6049 59.0139 69.7657 52.4555 87.1144L52.1497 46.0496ZM91.161 203.965C75.8736 203.229 62.7591 194.686 55.5436 182.346C55.3633 182.038 55.1872 181.727 55.0144 181.414C53.8036 179.222 52.776 176.917 51.9522 174.52C51.7168 173.835 51.4978 173.143 51.2961 172.444C49.9853 167.899 49.396 163.058 49.6559 158.061L51.7888 117.057C57.569 134.68 73.9572 147.583 93.5543 148.019C113.164 148.456 130.12 136.28 136.67 118.914L136.969 160.012C137.025 167.709 135.09 174.945 131.651 181.24C131.479 181.555 131.303 181.868 131.124 182.178C125.921 191.167 117.608 198.127 107.671 201.593C106.986 201.831 106.293 202.054 105.593 202.259C101.741 203.389 97.6708 204.001 93.4622 204.016C93.0797 204.017 92.6956 204.014 92.3108 204.005L91.161 203.965Z" fill="url(#paint6_linear_14_255)" fill-opacity="0.5"/>
<path d="M25.0027 111.292C3.58101 99.1313 -3.55602 71.6746 9.23208 50.6214C17.4254 37.1327 31.7213 29.6903 46.3721 29.6088C47.0868 29.6049 47.8024 29.6186 48.5182 29.6498C56.0329 29.9775 63.567 32.2532 70.3482 36.653L105.286 59.322C102.161 58.5581 98.9069 58.1163 95.558 58.0417C70.7114 57.4885 50.1207 77.1823 49.5676 102.029C49.3286 112.765 52.872 122.704 58.9755 130.577L25.0027 111.292ZM142.596 176.452C135.082 176.124 127.548 173.847 120.768 169.447L86.7233 147.351C88.9468 147.741 91.2285 147.968 93.5548 148.019C118.401 148.572 138.992 128.879 139.545 104.032C139.805 92.3599 135.596 81.6265 128.485 73.4689L166.107 94.8184C187.529 106.975 194.669 134.432 181.881 155.484C178.284 161.406 173.511 166.162 168.048 169.641C167.441 170.028 166.825 170.398 166.202 170.753C162.15 173.06 157.766 174.695 153.235 175.615C152.537 175.757 151.837 175.882 151.133 175.99C149.022 176.312 146.886 176.481 144.742 176.493C144.028 176.497 143.312 176.483 142.596 176.452Z" fill="url(#paint7_linear_14_255)" fill-opacity="0.5"/>
<path d="M127.162 134.045C134.615 126.215 139.285 115.69 139.544 104.032C140.098 79.1854 120.404 58.5948 95.5573 58.0416C93.2192 57.9895 90.919 58.1178 88.6694 58.4118L123.7 37.8368C144.94 25.363 172.288 32.9086 184.126 54.5091C194.67 73.7493 189.194 97.361 172.366 110.201C171.775 110.651 171.171 111.089 170.553 111.512C169.007 112.57 167.375 113.542 165.661 114.416L127.162 134.045ZM43.1513 174.24C28.5201 173.505 14.5713 165.435 6.98714 151.596C-4.85268 129.992 3.50245 102.877 25.4483 91.6837L60.2168 73.9513C53.781 81.5421 49.8056 91.3042 49.5668 102.029C49.0138 126.875 68.7076 147.466 93.554 148.019C96.9165 148.094 100.201 147.796 103.368 147.166L67.4151 168.274C60.4448 172.366 52.8174 174.303 45.2961 174.295C44.58 174.295 43.8648 174.276 43.1513 174.24Z" fill="url(#paint8_linear_14_255)" fill-opacity="0.5"/>
<defs>
<linearGradient id="paint0_linear_14_255" x1="92.3112" y1="204.005" x2="96.8073" y2="2.05518" gradientUnits="userSpaceOnUse">
<stop stop-color="#9ECF67"/>
<stop offset="1" stop-color="#86A1EF"/>
</linearGradient>
<linearGradient id="paint1_linear_14_255" x1="3.45653" y1="46.6868" x2="187.656" y2="159.415" gradientUnits="userSpaceOnUse">
<stop stop-color="#AEA1F4"/>
<stop offset="1" stop-color="#48C3DC"/>
</linearGradient>
<linearGradient id="paint2_linear_14_255" x1="1.07244" y1="153.911" x2="190.04" y2="52.1993" gradientUnits="userSpaceOnUse">
<stop stop-color="#B3D34A"/>
<stop offset="1" stop-color="#3FB5F4"/>
</linearGradient>
<linearGradient id="paint3_linear_14_255" x1="92.3112" y1="204.005" x2="96.8073" y2="2.05518" gradientUnits="userSpaceOnUse">
<stop stop-color="#9ECF67"/>
<stop offset="1" stop-color="#86A1EF"/>
</linearGradient>
<linearGradient id="paint4_linear_14_255" x1="3.45653" y1="46.6868" x2="187.656" y2="159.415" gradientUnits="userSpaceOnUse">
<stop stop-color="#AEA1F4"/>
<stop offset="1" stop-color="#48C3DC"/>
</linearGradient>
<linearGradient id="paint5_linear_14_255" x1="1.07252" y1="153.911" x2="190.04" y2="52.1993" gradientUnits="userSpaceOnUse">
<stop stop-color="#B3D34A"/>
<stop offset="1" stop-color="#3FB5F4"/>
</linearGradient>
<linearGradient id="paint6_linear_14_255" x1="92.3112" y1="204.005" x2="96.8073" y2="2.05518" gradientUnits="userSpaceOnUse">
<stop stop-color="#9ECF67"/>
<stop offset="1" stop-color="#86A1EF"/>
</linearGradient>
<linearGradient id="paint7_linear_14_255" x1="3.45653" y1="46.6868" x2="187.656" y2="159.415" gradientUnits="userSpaceOnUse">
<stop stop-color="#AEA1F4"/>
<stop offset="1" stop-color="#48C3DC"/>
</linearGradient>
<linearGradient id="paint8_linear_14_255" x1="1.07252" y1="153.911" x2="190.04" y2="52.1993" gradientUnits="userSpaceOnUse">
<stop stop-color="#B3D34A"/>
<stop offset="1" stop-color="#3FB5F4"/>
</linearGradient>
</defs>
</svg>
