<svg width="35" height="35" viewBox="0 0 35 35" fill="none" xmlns="http://www.w3.org/2000/svg">
<path fill-rule="evenodd" clip-rule="evenodd" d="M18.5377 34.1079L18.5184 34.1111L18.3942 34.1673L18.3592 34.1737L18.3347 34.1673L18.2104 34.1111C18.1918 34.1058 18.1778 34.1084 18.1684 34.1191L18.1614 34.1352L18.1317 34.8219L18.1404 34.854L18.1579 34.8749L18.3399 34.9936L18.3662 35L18.3872 34.9936L18.5692 34.8749L18.5902 34.8492L18.5972 34.8219L18.5674 34.1368C18.5628 34.1197 18.5529 34.1101 18.5377 34.1079ZM19.0014 33.9266L18.9787 33.9298L18.6549 34.079L18.6374 34.0951L18.6322 34.1127L18.6637 34.8027L18.6724 34.8219L18.6864 34.8331L19.0382 34.9824C19.0604 34.9877 19.0773 34.9834 19.0889 34.9695L19.0959 34.9471L19.0364 33.9619C19.0306 33.9427 19.0189 33.9309 19.0014 33.9266ZM17.7502 33.9298C17.7425 33.9255 17.7333 33.9241 17.7245 33.9259C17.7156 33.9277 17.7079 33.9326 17.7029 33.9394L17.6924 33.9619L17.6329 34.9471C17.6341 34.9663 17.644 34.9791 17.6627 34.9856L17.6889 34.9824L18.0407 34.8331L18.0582 34.8203L18.0652 34.8027L18.0949 34.1127L18.0897 34.0935L18.0722 34.0774L17.7502 33.9298Z" fill="#3782B1"/>
<path fill-rule="evenodd" clip-rule="evenodd" d="M17.5 0C7.83475 0 0 7.83475 0 17.5C0 27.1652 7.83475 35 17.5 35C27.1652 35 35 27.1652 35 17.5C35 7.83475 27.1652 0 17.5 0ZM9.22075 14.77C14.8907 13.188 20.6045 13.9842 25.5553 16.1245C25.9806 16.3042 26.4596 16.3085 26.8881 16.1365C27.3166 15.9646 27.6598 15.6302 27.8428 15.2064C28.0259 14.7825 28.0341 14.3035 27.8655 13.8736C27.697 13.4438 27.3654 13.098 26.943 12.9115C21.3955 10.514 14.8575 9.56375 8.27925 11.3995C7.83912 11.5303 7.46802 11.8288 7.24596 12.2307C7.02391 12.6326 6.96869 13.1056 7.09222 13.5478C7.21574 13.99 7.50812 14.366 7.9063 14.5946C8.30448 14.8233 8.77656 14.8862 9.22075 14.77ZM10.0538 19.7855C14.9327 18.4257 20.5467 19.2762 23.6687 21.1925C23.8647 21.3127 24.0823 21.3931 24.3093 21.4292C24.5363 21.4653 24.7682 21.4563 24.9917 21.4027C25.2153 21.3492 25.426 21.2521 25.6121 21.1171C25.7981 20.9821 25.9557 20.8118 26.0759 20.6159C26.1961 20.42 26.2765 20.2023 26.3126 19.9753C26.3486 19.7483 26.3396 19.5164 26.2861 19.2929C26.2326 19.0694 26.1355 18.8586 26.0005 18.6726C25.8655 18.4865 25.6952 18.3289 25.4992 18.2087C21.4532 15.7237 14.8173 14.8243 9.114 16.415C8.67667 16.548 8.30871 16.8467 8.08881 17.2475C7.86892 17.6482 7.81453 18.119 7.9373 18.5593C8.06006 18.9996 8.35022 19.3744 8.74574 19.6036C9.14125 19.8327 9.61072 19.898 10.0538 19.7855ZM10.808 24.605C12.7855 24.15 14.9853 24.1448 16.919 24.4457C18.914 24.7537 20.3525 25.3452 20.9755 25.8562C21.3352 26.15 21.7969 26.2889 22.259 26.2423C22.7211 26.1957 23.1457 25.9674 23.4395 25.6077C23.7333 25.248 23.8722 24.7864 23.8256 24.3243C23.779 23.8622 23.5507 23.4375 23.191 23.1438C21.8557 22.0535 19.691 21.3325 17.4563 20.986C15.1603 20.6307 12.5055 20.6238 10.024 21.196C9.79352 21.2408 9.57442 21.3316 9.37974 21.4629C9.18507 21.5942 9.01881 21.7633 8.89086 21.9602C8.76291 22.1571 8.67589 22.3777 8.63498 22.6089C8.59407 22.8401 8.60011 23.0772 8.65274 23.306C8.70536 23.5348 8.8035 23.7507 8.94131 23.9409C9.07911 24.131 9.25377 24.2914 9.45487 24.4126C9.65597 24.5338 9.87941 24.6133 10.1119 24.6464C10.3443 24.6794 10.5811 24.6653 10.808 24.605Z" fill="#3782B1"/>
</svg>
