<svg width="71" height="71" viewBox="0 0 71 71" fill="none" xmlns="http://www.w3.org/2000/svg">
<circle cx="35.5" cy="35.5" r="35.5" fill="#003776"/>
<path d="M35.5 0C55.1061 0 71 15.8939 71 35.5C71 55.1061 55.1061 71 35.5 71C15.8939 71 0 55.1061 0 35.5C0 15.8939 15.8939 0 35.5 0ZM21.2969 42.2588C20.9791 42.2213 20.6567 42.2462 20.3486 42.332C20.0406 42.4179 19.7524 42.5636 19.501 42.7598C19.2496 42.9559 19.0393 43.1991 18.8828 43.4756C18.7264 43.752 18.6268 44.0564 18.5889 44.3711C18.551 44.6859 18.5756 45.0054 18.6621 45.3105C18.7487 45.6159 18.8958 45.9022 19.0938 46.1514C20.9164 48.451 23.2431 50.3098 25.8975 51.5869C28.552 52.8641 31.4652 53.5265 34.416 53.5234C37.3623 53.5263 40.2706 52.8654 42.9219 51.5918C45.5733 50.3181 47.8987 48.4641 49.7217 46.1699C49.9199 45.9212 50.0671 45.636 50.1543 45.3311C50.2414 45.0262 50.2667 44.7073 50.2295 44.3926C50.1922 44.0777 50.0925 43.7729 49.9365 43.4961C49.7805 43.2193 49.5713 42.9749 49.3203 42.7783C49.0693 42.5818 48.7814 42.437 48.4736 42.3506C48.1659 42.2642 47.8441 42.2385 47.5264 42.2754C47.2087 42.3123 46.9013 42.4109 46.6221 42.5654C46.3427 42.7201 46.0968 42.928 45.8984 43.1768C44.5316 44.8988 42.7871 46.2902 40.7979 47.2461C38.8088 48.2019 36.6265 48.6972 34.416 48.6943C32.2033 48.6952 30.019 48.1976 28.0283 47.2402C26.0376 46.2827 24.2913 44.8903 22.9229 43.167C22.7249 42.9178 22.4793 42.706 22.2002 42.5508C21.9213 42.3958 21.6144 42.2963 21.2969 42.2588ZM21.4229 22.9404C20.3664 22.9701 19.3627 23.4063 18.626 24.1572C17.8892 24.9084 17.4766 26.72 17.4766 27.7676C17.4766 28.8151 17.8894 30.6287 18.626 31.3799C19.3627 32.131 20.3663 32.568 21.4229 32.5977C21.9652 32.6128 22.5052 32.5203 23.0107 32.3252C23.5165 32.1299 23.978 31.8359 24.3672 31.4609C24.7564 31.0859 25.0661 30.6372 25.2773 30.1416C25.4886 29.6461 25.5976 28.3058 25.5977 27.7676C25.5977 27.2296 25.4886 25.8922 25.2773 25.3965C25.0661 24.9009 24.7565 24.4522 24.3672 24.0771C23.978 23.7022 23.5165 23.4082 23.0107 23.2129C22.5051 23.0177 21.9652 22.9253 21.4229 22.9404ZM46.9668 24.0312C45.7475 24.0295 44.5435 24.4124 43.4463 25.1523C42.3491 25.8923 41.3872 26.9699 40.6328 28.3027C40.5507 28.4473 40.4892 28.6128 40.4531 28.79C40.4171 28.9672 40.4065 29.153 40.4219 29.3359C40.4373 29.5188 40.4785 29.6957 40.543 29.8564C40.6075 30.0172 40.695 30.1583 40.7988 30.2725C40.9026 30.3865 41.0212 30.4713 41.1484 30.5215C41.2758 30.5717 41.4095 30.5869 41.541 30.5654C41.6725 30.544 41.7995 30.4863 41.915 30.3965C42.0306 30.3067 42.1328 30.1865 42.2148 30.042C42.7805 29.0415 43.502 28.2331 44.3252 27.6777C45.1484 27.1224 46.0519 26.8342 46.9668 26.8359C47.8823 26.8355 48.7858 27.1246 49.6094 27.6807C50.4332 28.2369 51.1563 29.0466 51.7227 30.0479C51.8045 30.1924 51.9061 30.3152 52.0215 30.4053C52.1369 30.4953 52.2641 30.5534 52.3955 30.5752C52.5269 30.5969 52.6607 30.5821 52.7881 30.5322C52.9154 30.4823 53.0347 30.398 53.1387 30.2842C53.2427 30.1702 53.3298 30.0288 53.3945 29.8682C53.4593 29.7075 53.4999 29.5305 53.5156 29.3477C53.5313 29.1647 53.5212 28.9791 53.4854 28.8018C53.4495 28.6244 53.3885 28.4583 53.3066 28.3135C52.5524 26.9775 51.5896 25.8972 50.4912 25.1553C49.3929 24.4135 48.1877 24.0295 46.9668 24.0312Z" fill="white"/>
</svg>
